<svg width="26" height="26" viewBox="0 0 26 26" fill="none" xmlns="http://www.w3.org/2000/svg">
<rect width="26" height="26" fill="#F3F3F3"/>
<g clip-path="url(#clip0)">
<path d="M16.9045 15.4518C16.9045 16.815 14.24 17.9213 10.9525 17.9213C7.6655 17.9213 5 16.815 5 15.4518C5 14.0868 7.6655 12.9813 10.9525 12.9813C14.24 12.9813 16.9045 14.0868 16.9045 15.4518" fill="#A6A8AB"/>
<path d="M14.9556 18.2947C18.2428 18.2947 20.9076 17.1891 20.9076 15.8252C20.9076 14.4613 18.2428 13.3557 14.9556 13.3557C11.6683 13.3557 9.00354 14.4613 9.00354 15.8252C9.00354 17.1891 11.6683 18.2947 14.9556 18.2947Z" fill="#A6A8AB"/>
<path d="M13.1692 17.4487C10.6517 17.4487 8.39421 16.8777 6.86422 15.9745C6.84897 16.0964 6.83972 16.2197 6.83972 16.3447C6.83972 18.7029 9.62946 20.6147 13.0704 20.6147C16.5119 20.6147 19.3017 18.7027 19.3017 16.3447C19.3017 16.2548 19.2967 16.1664 19.2879 16.0782C17.7652 16.9209 15.5869 17.4487 13.1687 17.4487" fill="#D0D2D3"/>
<path d="M9.96682 17.1223C8.76557 16.866 7.70433 16.4713 6.86483 15.9752C6.84958 16.0972 6.84033 16.2204 6.84033 16.3455C6.84033 18.7037 9.63007 20.6154 13.0711 20.6154C13.3423 20.6154 13.6088 20.6019 13.8716 20.579C11.7821 20.0154 10.2451 18.7029 9.96682 17.1223" fill="#B6B6B7"/>
<path d="M20.0301 14.284C20.0301 15.878 16.914 17.17 13.0725 17.17C9.22976 17.17 6.1145 15.8762 6.1145 14.284C6.1145 12.6894 9.22976 11.3954 13.0725 11.3954C16.914 11.3954 20.0301 12.6884 20.0301 14.284Z" fill="#D0D2D3"/>
<path d="M13.0226 16.6423C16.3099 16.6423 18.9748 15.5363 18.9748 14.172C18.9748 12.8078 16.3099 11.7018 13.0226 11.7018C9.73523 11.7018 7.07031 12.8078 7.07031 14.172C7.07031 15.5363 9.73523 16.6423 13.0226 16.6423Z" fill="#A6A8AB"/>
<path d="M8.43994 12.2068C8.00894 12.6028 7.55718 12.9697 7.11018 13.3456C6.71243 13.6789 7.22043 14.2915 7.63743 14.0552C8.02644 13.836 8.41244 13.621 8.82419 13.4509C8.66044 13.2289 8.49594 13.0076 8.33244 12.7856C8.22452 12.9675 8.1036 13.1407 7.97069 13.3038C7.68443 13.6787 8.04919 14.3128 8.49794 14.0138C8.79494 13.8167 9.08719 13.6197 9.39694 13.4449L8.80219 12.8269C8.69594 13.0115 8.61294 13.199 8.52819 13.3958C8.36944 13.7608 8.72969 14.3092 9.12294 14.0143C9.44244 13.7757 9.74469 13.5323 10.0319 13.252C10.4179 12.8779 9.92994 12.342 9.50519 12.542C9.48119 12.569 9.45869 12.596 9.43569 12.6233C9.38369 12.83 9.33144 13.0362 9.27994 13.2419C9.45178 13.1288 9.6413 13.0479 9.83994 13.0027C10.2667 12.8742 10.2437 12.2705 9.83994 12.1309C9.80069 12.1171 9.76194 12.1033 9.72294 12.0901V12.9624C9.91694 12.8862 10.1064 12.8415 10.3099 12.7999C10.1977 12.524 10.0864 12.2479 9.97444 11.9728C9.26919 12.3353 7.03418 12.9156 7.82493 14.1776C7.94944 13.9496 8.07494 13.7237 8.20044 13.4964C8.12169 13.4884 8.04319 13.4803 7.96444 13.4717C7.47993 13.3651 7.20693 14.0162 7.62918 14.299C7.77668 14.409 7.93294 14.5044 8.09769 14.584C8.17119 14.3027 8.24419 14.0219 8.31719 13.7406C8.13444 13.7528 7.95269 13.766 7.77043 13.7814C7.20743 13.8258 7.21368 14.6326 7.77043 14.6859C8.34519 14.7403 9.09294 14.9028 9.62969 14.5939C9.80044 14.4946 9.89619 14.4072 10.0237 14.2611C10.1134 14.1579 10.2079 14.0604 10.3039 13.9636C10.7399 13.5261 10.1874 14.0921 10.1892 13.7455L10.8439 13.3552C10.7782 13.3147 10.7132 13.2733 10.6479 13.233C10.5744 13.5138 10.5019 13.7946 10.4279 14.076C10.5769 14.1371 10.7249 14.1979 10.8732 14.2577L11.0932 13.4148C10.8593 13.3864 10.6231 13.3864 10.3892 13.4148C10.0574 13.4535 9.85244 13.7684 10.0134 14.0957C10.2992 14.6753 10.9497 14.8996 11.5259 15.0346C12.0722 15.1646 12.3034 14.2923 11.7572 14.1625C11.4167 14.0822 10.9419 13.9964 10.7667 13.6399C10.6407 13.8659 10.5167 14.0929 10.3904 14.3201C10.6244 14.2925 10.8605 14.2925 11.0944 14.3201C11.5517 14.3731 11.6502 13.6971 11.3139 13.4769C11.0219 13.2866 10.7702 13.2109 10.4289 13.1714C9.97869 13.1189 9.86519 13.7988 10.2099 14.0136L10.4054 14.136C10.6912 14.3149 11.0577 14.0848 11.0597 13.7452C11.0647 13.0529 10.5874 12.6772 9.98869 13.07C9.74069 13.2336 9.53494 13.4759 9.34094 13.7003C9.03894 14.0484 8.17144 13.8186 7.77168 13.7811V14.6857C7.95385 14.6713 8.13611 14.6581 8.31844 14.6461C8.72269 14.6178 8.94794 14.0245 8.53844 13.803C8.37389 13.7236 8.21695 13.6282 8.06969 13.518C7.95744 13.7941 7.84568 14.0692 7.73518 14.3451C7.88865 14.3797 8.04495 14.3989 8.20194 14.4025C8.52144 14.4098 8.75669 14.0073 8.57694 13.7211C8.46769 13.5458 10.2067 12.8612 10.4154 12.7546C10.8819 12.5157 10.5384 11.8335 10.0797 11.9278C9.87744 11.9692 9.68794 12.0149 9.49319 12.0903C9.09219 12.2469 9.06844 12.8152 9.49319 12.9626C9.53294 12.9762 9.57144 12.9899 9.61069 13.0027V12.1309C9.32869 12.2172 9.08844 12.2944 8.84194 12.4606C8.66294 12.5823 8.53669 12.8779 8.68619 13.0796C9.04619 13.5671 9.42244 13.5708 9.94619 13.3233C9.77019 13.0872 9.59419 12.8501 9.41894 12.6132C9.18772 12.8363 8.94287 13.0436 8.68594 13.2338L9.28119 13.8529C9.36644 13.6563 9.44819 13.4683 9.55519 13.2837C9.78544 12.8846 9.33519 12.453 8.95944 12.6647C8.64969 12.8399 8.35769 13.0375 8.06094 13.2338L8.58719 13.9439C8.76169 13.7146 8.93119 13.4865 9.08594 13.2424C9.28444 12.9291 8.95169 12.4299 8.59419 12.5781C8.11219 12.7783 7.65593 13.017 7.20018 13.2733C7.37568 13.511 7.55193 13.7484 7.72793 13.985C8.17419 13.61 8.62594 13.2419 9.05669 12.8464C9.47794 12.4601 8.86019 11.8236 8.44119 12.2073" fill="#00A551"/>
<path d="M9.61298 14.6355C9.87848 14.9408 10.201 15.0554 10.586 15.1176C10.6245 14.8214 10.663 14.525 10.702 14.2289C10.6196 14.2257 10.5389 14.2035 10.4657 14.1639C10.4265 14.4605 10.3887 14.7567 10.3502 15.0536C10.8847 15.0539 11.8805 15.116 12.047 14.3864C12.2462 13.5141 11.6222 12.803 10.896 12.4978L10.7797 13.3862H10.8582C11.3705 13.3862 11.4215 12.6658 10.9737 12.4978C10.714 12.4 10.4647 12.3083 10.2187 12.1777C10.1452 12.458 10.0727 12.7393 9.99873 13.0209C10.2422 13.0339 11.2245 13.2921 11.1435 13.6668C11.0967 13.881 11.1767 14.0534 11.3427 14.1782C11.8855 14.583 12.421 15.0481 13.0885 15.1995C13.5825 15.3118 13.83 14.6636 13.4237 14.3727C13.344 14.3161 13.2562 14.2732 13.1635 14.2455V15.1176L13.4372 15.0362C13.975 14.8768 13.7455 14.0029 13.2055 14.1641C13.1147 14.192 13.0232 14.2195 12.9315 14.2455C12.51 14.3711 12.5252 14.985 12.9315 15.1176C12.9495 15.1298 12.9672 15.142 12.9842 15.1542C13.096 14.8778 13.2082 14.6028 13.3197 14.3269C12.7335 14.193 12.2587 13.7526 11.7825 13.3971L11.982 13.9083C12.225 12.7841 10.8835 12.165 9.99848 12.1156C9.57173 12.0922 9.39623 12.7562 9.77898 12.959C10.0915 13.1236 10.4145 13.2463 10.7432 13.3701C10.7815 13.0737 10.8197 12.7778 10.859 12.4809H10.7805C10.2562 12.4809 10.2322 13.1886 10.665 13.3701C10.8492 13.4476 11.4987 14.0209 11.0775 14.1277C10.8517 14.1855 10.5817 14.1498 10.351 14.1483C9.82323 14.148 9.80673 14.8529 10.235 15.0362C10.386 15.1017 10.5412 15.1176 10.703 15.1339C11.189 15.1846 11.3017 14.324 10.8185 14.2455C10.5857 14.2076 10.4007 14.1935 10.2285 13.9967C9.85148 13.563 9.23773 14.2044 9.61398 14.6355" fill="#00A551"/>
<path d="M18.045 14.2954C17.6715 14.4628 17.297 14.625 16.929 14.8052C16.542 14.9955 16.7247 15.6827 17.1485 15.6487C17.5665 15.6141 17.9677 15.5197 18.38 15.4456L17.957 14.6908C17.4327 15.1716 16.421 15.0673 15.7662 15.0683C15.2847 15.0689 15.1592 15.8535 15.65 15.957C16.0992 16.0509 16.5022 16.0426 16.9517 15.957C17.3665 15.8772 17.3717 15.1588 16.9517 15.0847C16.124 14.9378 15.3127 15.0182 14.4792 15.0618C13.5852 15.1102 12.6887 14.948 11.7947 14.9292C11.2255 14.9181 11.247 15.7797 11.7947 15.8338C12.291 15.8829 12.7572 15.8967 13.2485 15.8179C13.6642 15.7519 13.6682 15.007 13.2485 14.9459C12.3327 14.8112 10.8957 14.5689 10.149 15.2938C10.3245 15.2698 10.5002 15.247 10.6765 15.2228C10.2467 15.0332 9.86022 14.8086 9.38596 14.7907C9.08021 14.779 8.81021 15.1944 9.01071 15.4708C9.09946 15.5951 9.18921 15.7181 9.27721 15.8418C9.47621 15.6357 9.67447 15.43 9.87247 15.2228C9.22621 14.8577 8.67796 14.4402 7.91371 14.4651C7.49121 14.4794 7.30646 15.0808 7.69421 15.3081C9.12146 16.1466 10.825 16.5966 12.4642 16.5769C13.0267 16.5696 13.0232 15.6939 12.4642 15.6723C12.166 15.6596 11.8695 15.6372 11.571 15.6255C11.086 15.6058 10.9712 16.4167 11.456 16.5142C12.773 16.7794 14.0727 16.6712 15.3902 16.4682C15.8865 16.3912 15.751 15.579 15.275 15.579H14.9172V16.4835C15.4722 16.482 16.1007 16.5033 16.6042 16.2149C16.7945 16.1063 17.8252 15.0291 17.9102 15.0769C18.1197 15.1937 18.3827 15.1326 18.5055 14.9144C18.6105 14.7275 18.7237 14.5496 18.8175 14.3567H18.0675C18.1827 14.4945 18.272 14.6497 18.335 14.8208C18.5625 14.638 18.7907 14.4558 19.0182 14.273C18.7182 13.889 18.374 13.6825 17.9345 13.507C17.745 13.4316 17.544 13.558 17.4427 13.7148C17.3655 13.8136 17.307 13.9212 17.264 14.04C17.492 14.0096 17.7192 13.9787 17.9467 13.948C17.6347 13.6646 17.4102 13.3209 17.056 13.0887C16.6992 12.856 16.2045 13.3315 16.4607 13.7072C16.5537 13.844 16.6405 13.9561 16.7522 14.0775C16.893 13.8261 17.034 13.5736 17.1755 13.3219C16.756 13.2265 16.3752 13.0892 15.9435 13.0741C15.6675 13.0635 15.441 13.3718 15.524 13.6459C15.5715 13.8206 15.631 13.9912 15.7022 14.157L16.0065 13.5996C15.8972 13.6417 15.8165 13.6875 15.726 13.7626C15.573 13.8898 15.571 14.1474 15.6575 14.3104C15.726 14.4298 15.7855 14.5538 15.836 14.6822C15.9995 14.4602 16.1642 14.2389 16.327 14.0174C15.8322 13.9285 15.4842 13.3726 15.122 13.044C14.7697 12.7255 14.3915 12.577 13.9367 12.5162C13.4367 12.4501 13.3665 13.2678 13.8212 13.4046C14.419 13.5845 15.0122 13.6443 15.6325 13.6529C16.2 13.6615 16.184 12.792 15.6325 12.7481C14.7465 12.6779 14.5672 13.2244 14.031 13.8089L14.7732 14.1287C14.7382 13.7824 15.4175 13.585 15.6397 13.5047C16.1915 13.3022 16.6382 13.3971 17.1522 13.6841C17.647 13.9597 18.0857 13.1787 17.5915 12.9015C16.7772 12.447 16.0925 12.3789 15.2262 12.6969C14.6332 12.914 13.8252 13.357 13.9037 14.1271C13.9412 14.4945 14.3607 14.7576 14.646 14.4467C14.9705 14.0936 15.087 13.6077 15.6327 13.6508V12.746C15.0902 12.7387 14.5755 12.688 14.0527 12.5307L13.937 13.4194C14.8375 13.539 15.1845 14.7246 16.0972 14.8879C16.4882 14.9576 16.753 14.598 16.5885 14.2226C16.5385 14.0944 16.4789 13.9705 16.4102 13.8521C16.387 14.0341 16.3645 14.2168 16.3422 14.3996C16.3072 14.423 16.2737 14.4464 16.24 14.4696C16.4417 14.3931 16.6372 14.1552 16.5432 13.9132C16.4709 13.748 16.4113 13.5772 16.365 13.4023C16.2247 13.5926 16.0855 13.7842 15.945 13.9748C16.2915 13.9878 16.611 14.1149 16.9445 14.1903C17.3665 14.2865 17.6785 13.772 17.3677 13.4348C17.316 13.3734 17.2647 13.3105 17.2135 13.2476C17.0142 13.454 16.8165 13.6604 16.6177 13.8669C16.8995 14.0502 17.0842 14.3591 17.3325 14.585C17.5257 14.7602 17.89 14.7748 18.015 14.4935C18.058 14.3754 18.1175 14.2668 18.1942 14.1685C18.0307 14.2387 17.8665 14.3071 17.703 14.3773C18.0102 14.4992 18.1987 14.6484 18.4035 14.9095C18.7327 15.3315 19.2897 14.7951 19.086 14.3614C19.0235 14.1918 18.9329 14.0349 18.8182 13.8978C18.6405 13.6441 18.2297 13.5679 18.0682 13.8978C17.9735 14.0905 17.8617 14.2688 17.7562 14.4558C17.954 14.4009 18.1532 14.3476 18.3515 14.2933C17.865 14.0211 17.478 14.1266 17.094 14.5252C16.8255 14.8021 16.665 15.0962 16.346 15.3304C15.943 15.625 15.3875 15.5759 14.9205 15.5769C14.36 15.5779 14.36 16.4814 14.9205 16.4814H15.278L15.1622 15.5933C14.007 15.7711 12.846 15.871 11.6907 15.639C11.6515 15.9349 11.6132 16.2316 11.574 16.5272C11.8725 16.5399 12.1687 16.5623 12.4672 16.5748V15.6702C10.9807 15.6874 9.43096 15.2854 8.13546 14.5252C8.06296 14.807 7.98946 15.0876 7.91646 15.3681C8.50896 15.3491 8.94196 15.7225 9.43671 16.0028C9.78847 16.2014 10.31 15.7698 10.0315 15.3835C9.94272 15.2592 9.85372 15.1359 9.76397 15.0117C9.63847 15.2389 9.51397 15.4659 9.38871 15.6923C9.69797 15.704 9.96297 15.8798 10.2397 16.002C10.4277 16.0849 10.6087 16.0839 10.7665 15.9315C11.209 15.5025 12.475 15.7365 13.0215 15.8158V14.9438C12.612 15.0078 12.2082 14.9672 11.7985 14.9272V15.8317C12.6035 15.8481 13.4027 15.9555 14.2082 15.9708C15.052 15.9874 15.882 15.8052 16.7232 15.9549V15.0826C16.4477 15.1541 16.1595 15.1541 15.884 15.0826L15.7687 15.9708C16.6992 15.9698 17.834 16.008 18.5742 15.3278C18.9335 15.0002 18.5407 14.5028 18.1517 14.5723C17.8177 14.6308 17.4907 14.714 17.1517 14.7418C17.2245 15.0231 17.2982 15.3029 17.3715 15.5842C17.7387 15.4048 18.1137 15.2415 18.4867 15.0748C19 14.8442 18.556 14.0653 18.0477 14.2948" fill="#F6921E"/>
<path d="M12.55 16.6608C13.0987 16.6894 13.647 16.6894 14.1957 16.6608C14.6592 16.6356 14.8195 15.8455 14.3117 15.7719C13.6827 15.6809 13.062 15.7204 12.4305 15.724C12.4687 16.021 12.508 16.3161 12.5462 16.6127C12.999 16.5438 13.4262 16.4853 13.847 16.2872C14.3577 16.0459 13.9147 15.2675 13.408 15.5072C13.0705 15.6658 12.677 15.6866 12.3147 15.7412C11.82 15.8171 11.9517 16.6335 12.4302 16.6307C12.9775 16.6257 13.5365 16.5662 14.081 16.6447C14.119 16.3486 14.1575 16.0527 14.196 15.756C13.6478 15.7854 13.0985 15.7854 12.5502 15.756C11.989 15.7266 11.992 16.6322 12.5502 16.6619" fill="#A87C4F"/>
<path d="M16.6225 14.0293C15.913 14.2503 15.2037 14.3827 14.4635 14.4175C13.9982 14.4394 13.842 15.235 14.3477 15.3062C14.4849 15.3273 14.6239 15.3327 14.7622 15.3223C15.2237 15.2898 15.3902 14.5194 14.8789 14.4347C14.846 14.4287 14.813 14.4231 14.7799 14.4178C14.8809 14.5226 14.9832 14.6284 15.0837 14.7345C15.0722 14.8996 15.0759 14.9011 15.0927 14.7391C15.0855 14.67 15.0757 14.6012 15.0632 14.533C14.9662 13.9586 14.1292 14.2025 14.2244 14.7727C14.1867 14.5473 14.2279 14.9279 14.2454 14.9747C14.3219 15.1757 14.4432 15.2724 14.6475 15.3065C14.686 15.0101 14.7249 14.7142 14.7624 14.4178C14.7013 14.4213 14.6402 14.4269 14.5795 14.4347C14.5415 14.7303 14.5027 15.0264 14.4637 15.3223C15.2741 15.2851 16.077 15.1435 16.8539 14.9009C17.3899 14.7352 17.1607 13.8616 16.6225 14.0293" fill="#A87C4F"/>
<path d="M12.52 12.6155C13.2392 12.6134 13.9572 12.591 14.675 12.6464C14.6362 12.3503 14.598 12.0536 14.559 11.758C14.2832 11.8269 13.9997 11.8134 13.717 11.8355C13.2375 11.8721 13.1137 12.5754 13.602 12.7239C13.8505 12.8001 14.1262 12.8219 14.3662 12.927C14.4005 12.6514 14.434 12.3755 14.4697 12.1004C13.9772 12.29 13.4815 12.4613 12.9737 12.5983C12.667 12.681 12.5377 13.1253 12.7817 13.3544C12.8905 13.4566 12.9855 13.5575 13.1092 13.6427V12.8627C13.0492 12.9038 12.9895 12.9454 12.9297 12.9873C12.7127 13.1376 12.6162 13.4979 12.8415 13.6981C12.9705 13.813 13.0787 13.9306 13.2285 14.0177L13.3325 13.1898C13.223 13.2387 13.1385 13.2845 13.0507 13.369C12.8577 13.553 12.887 13.9594 13.1385 14.0793C13.2345 14.1245 13.3205 14.164 13.423 14.1864C13.97 14.3047 14.2027 13.4332 13.6545 13.3146C13.6285 13.3089 13.6035 13.3032 13.5782 13.2982L13.666 14.008C13.6325 14.0262 13.5982 14.0447 13.5642 14.0626C13.888 13.9217 14.0312 13.4454 13.668 13.2351C13.585 13.1867 13.529 13.1212 13.457 13.0567C13.427 13.2936 13.3992 13.5302 13.3687 13.7665C13.429 13.7262 13.4885 13.6846 13.5485 13.6425C13.8272 13.4496 13.8287 13.0541 13.5485 12.8599C13.4997 12.8093 13.4493 12.7604 13.3975 12.7132C13.3327 12.9652 13.269 13.2171 13.2047 13.4693C13.7125 13.3328 14.2097 13.1604 14.7007 12.9706C15.0065 12.8539 15.1897 12.3134 14.8047 12.1446C14.4875 12.005 14.1612 11.9499 13.833 11.8495C13.7947 12.1462 13.7552 12.4426 13.7167 12.7382C14.079 12.7112 14.4355 12.7179 14.7907 12.6287C15.2907 12.5039 15.144 11.7762 14.6747 11.7403C13.957 11.6849 13.239 11.7068 12.5197 11.7089C11.9592 11.7125 11.9592 12.6165 12.5197 12.6155" fill="#A87C4F"/>
<path d="M15.666 12.7234C16.3533 12.9499 16.9995 13.2744 17.6268 13.643C17.738 13.3674 17.8498 13.0916 17.9615 12.8162C17.7843 12.7655 17.61 12.7567 17.4273 12.7375C17.233 12.7161 17.0613 12.8922 17.0075 13.069C17.0868 12.8035 17.3853 12.8144 17.178 12.8207C17.067 12.8209 16.955 12.809 16.8458 12.7988C16.6505 12.7796 16.4563 12.7445 16.2603 12.7375C15.8745 12.7232 15.6928 13.2377 15.9528 13.5097C16.1543 13.721 16.3693 13.7832 16.6488 13.7972C17.2105 13.8282 17.2073 12.9236 16.6488 12.8927C16.6228 12.8846 16.595 12.8773 16.5685 12.8695C16.4655 13.1267 16.3638 13.3841 16.2608 13.6423C16.7375 13.6586 17.6468 13.9774 17.8468 13.3097C17.707 13.421 17.5678 13.5315 17.4278 13.6423C17.5298 13.6482 17.631 13.6641 17.7313 13.688C18.206 13.824 18.4988 13.1158 18.0658 12.861C17.3753 12.4548 16.655 12.0997 15.8978 11.8506C15.3598 11.6748 15.1323 12.5492 15.666 12.7234" fill="#A87C4F"/>
<path d="M18.1073 14.3936C18.0126 14.5051 17.9136 14.6094 17.8041 14.7048C17.8308 14.6856 17.8226 14.6915 17.7798 14.724C17.7541 14.743 17.7281 14.7607 17.7018 14.7789C17.6749 14.7962 17.6476 14.8127 17.6198 14.8286C17.6271 14.8234 17.4896 14.8954 17.5516 14.8681C17.3331 14.963 17.1793 15.1637 17.2473 15.4247C17.3043 15.639 17.5636 15.8363 17.7826 15.7406C18.1523 15.5797 18.4566 15.3452 18.7236 15.0332C18.8808 14.8488 18.8976 14.5751 18.7236 14.3933C18.5623 14.2277 18.2646 14.2092 18.1073 14.3933" fill="#A87C4F"/>
<path d="M8.9897 15.4776C9.21995 15.4778 9.4482 15.5101 9.6772 15.5405C9.9132 15.5709 10.1117 15.3109 10.1117 15.0881C10.1117 14.8174 9.9122 14.6664 9.6772 14.6352C9.4482 14.6058 9.21995 14.5754 8.9897 14.573C8.75145 14.5709 8.5542 14.781 8.5542 15.0262C8.5542 15.2742 8.75145 15.4755 8.9897 15.4776Z" fill="#A87C4F"/>
<path d="M10.8367 5.53367C9.51393 6.16963 8.96168 7.32949 9.58168 8.62065C9.95168 9.39103 10.5399 10.0546 11.0184 10.768C11.6289 11.6801 11.6172 12.5144 11.1322 13.478C10.9432 13.8521 11.5467 14.18 11.7367 13.8035C12.4222 12.4445 12.2772 11.3741 11.4124 10.1323C10.4834 8.79771 9.03793 7.12487 11.1904 6.09059C11.5917 5.89767 11.2369 5.34075 10.8369 5.53289" fill="#E6E7E8"/>
<path d="M13.1313 14.5559C13.7538 13.8324 13.8963 13.1005 13.5785 12.2222C13.2305 11.2612 12.5435 10.4799 12.5323 9.42641C12.5225 8.55411 12.9918 7.70417 13.3183 6.90519C13.6533 6.08437 13.8208 5.26303 13.641 4.39307C13.5575 3.98513 12.8835 4.15777 12.9653 4.56441C13.2865 6.13221 12.0975 7.49435 11.8683 9.00001C11.762 9.70123 11.907 10.3871 12.219 11.029C12.7095 12.0371 13.5253 13.0654 12.6353 14.0999C12.3583 14.4226 12.8505 14.8799 13.1313 14.5554" fill="#E6E7E8"/>
<path d="M15.2899 13.5539C15.2816 12.8454 15.1804 12.198 14.9304 11.5275C14.8129 11.2145 14.6126 10.9399 14.5036 10.6224C14.3941 10.3045 14.6119 9.92798 14.7696 9.66304C15.2994 8.7754 15.8576 8.07938 15.2884 7.06928C15.0791 6.69956 14.4751 7.02586 14.6816 7.39402C15.2376 8.37916 14.0694 9.17684 13.8271 10.0983C13.7016 10.573 13.8829 10.9979 14.1069 11.4188C14.4689 12.1026 14.5791 12.7994 14.5874 13.5539C14.5939 13.9697 15.2949 13.9697 15.2899 13.5539Z" fill="#E6E7E8"/>
</g>
<defs>
<clipPath id="clip0">
<rect width="16" height="16.64" fill="white" transform="translate(5 4.16003)"/>
</clipPath>
</defs>
</svg>
